<?xml version="1.0" encoding="UTF-8" standalone="no"?>
<!-- Created with Inkscape (http://www.inkscape.org/) -->

<svg
   xmlns:dc="http://purl.org/dc/elements/1.1/"
   xmlns:cc="http://creativecommons.org/ns#"
   xmlns:rdf="http://www.w3.org/1999/02/22-rdf-syntax-ns#"
   xmlns:svg="http://www.w3.org/2000/svg"
   xmlns="http://www.w3.org/2000/svg"
   xmlns:sodipodi="http://sodipodi.sourceforge.net/DTD/sodipodi-0.dtd"
   xmlns:inkscape="http://www.inkscape.org/namespaces/inkscape"
   id="svg8"
   version="1.1"
   viewBox="0 0 475 375"
   height="375mm"
   width="475mm"
   inkscape:version="0.92.3 (2405546, 2018-03-11)"
   sodipodi:docname="BASE.svg">
  <sodipodi:namedview
     inkscape:window-maximized="1"
     inkscape:window-y="-8"
     inkscape:window-x="1912"
     inkscape:window-height="1017"
     inkscape:window-width="1920"
     showgrid="false"
     inkscape:current-layer="svg8"
     inkscape:document-units="mm"
     inkscape:cy="1131.9595"
     inkscape:cx="400"
     inkscape:zoom="0.35"
     inkscape:pageshadow="2"
     inkscape:pageopacity="0.0"
     borderopacity="1.0"
     bordercolor="#666666"
     pagecolor="#ffffff"
     id="base" />
  <defs
     id="defs2" />
  <metadata
     id="metadata5">
    <rdf:RDF>
      <cc:Work
         rdf:about="">
        <dc:format>image/svg+xml</dc:format>
        <dc:type
           rdf:resource="http://purl.org/dc/dcmitype/StillImage" />
        <dc:title></dc:title>
      </cc:Work>
    </rdf:RDF>
  </metadata>
  <g
     inkscape:label="Layer 1"
     inkscape:groupmode="layer"
     id="layer1"
     transform="translate(0,78)" />
  <g
     transform="translate(0,-225)"
     inkscape:label="newlayer"
     inkscape:groupmode="layer"
     id="g3800" />
  <g
     id="g4026"
     inkscape:groupmode="layer"
     inkscape:label="newlayer"
     transform="translate(0,-125)" />
  <path
     id="path4028"
     inkscape:label="part"
     style="fill:none;stroke:#000000"
     d="m 25.05,313.58928 h 10.886429 v -3.4 h 10.17 v 3.4 h 10.801429 v -3.4 h 10.17 v 3.4 h 10.801428 v -3.4 h 10.17 v 3.4 h 10.801425 v -3.4 h 10.170009 v 3.4 h 10.80143 v -3.4 h 10.17 v 3.4 h 10.80143 v -3.4 h 10.17 v 3.4 h 10.88643"
     inkscape:connector-curvature="0" />
  <path
     id="path4030"
     inkscape:label="part"
     style="fill:none;stroke:#000000"
     d="m 161.85001,313.58928 v 15.085 h -3.4 v 9.83 h 3.4 v 15.085"
     inkscape:connector-curvature="0" />
  <path
     id="path4032"
     inkscape:label="part"
     style="fill:none;stroke:#000000"
     d="m 161.85001,353.58928 h -10.88643 v 3.4 h -10.17 v -3.4 h -10.80143 v 3.4 h -10.17 v -3.4 h -10.80143 v 3.4 H 98.850711 v -3.4 H 88.049286 v 3.4 h -10.17 v -3.4 H 67.077858 v 3.4 h -10.17 v -3.4 H 46.106429 v 3.4 h -10.17 v -3.4 H 25.05"
     inkscape:connector-curvature="0" />
  <path
     id="path4034"
     inkscape:label="part"
     style="fill:none;stroke:#000000"
     d="m 25.05,353.58928 v -15.085 h 3.4 v -9.83 h -3.4 v -15.085"
     inkscape:connector-curvature="0" />
  <path
     id="path4036"
     inkscape:label="part"
     style="fill:none;stroke:#000000"
     d="m 334.97143,29.694047 h 14.915 v -3.4 h 10.17 v 3.4 h 14.915"
     inkscape:connector-curvature="0" />
  <path
     id="path4038"
     inkscape:label="part"
     style="fill:none;stroke:#000000"
     d="m 374.97143,29.694047 v 7.80731 h 3.4 v 10.17 h -3.4 v 11.12231 h 3.4 v 10.17 h -3.4 v 11.122305 h 3.4 v 10.17 h -3.4 v 11.122308 h 3.4 v 10.17 h -3.4 v 11.12231 h 3.4 v 10.17 h -3.4 v 11.12231 h 3.4 v 10.17 h -3.4 v 11.1223 h 3.4 v 10.17 h -3.4 v 11.12231 h 3.4 v 10.17 h -3.4 v 11.12231 h 3.4 v 10.17 h -3.4 v 11.12231 h 3.4 v 10.17 h -3.4 v 11.12231 h 3.4 v 10.17 h -3.4 v 11.1223 h 3.4 v 10.17 h -3.4 v 7.80731"
     inkscape:connector-curvature="0" />
  <path
     id="path4040"
     inkscape:label="part"
     style="fill:none;stroke:#000000"
     d="m 374.97143,289.69405 h -14.915 v 3.4 h -10.17 v -3.4 h -14.915"
     inkscape:connector-curvature="0" />
  <path
     id="path4042"
     inkscape:label="part"
     style="fill:none;stroke:#000000"
     d="m 334.97143,289.69405 v -7.80731 h -3.4 v -10.17 h 3.4 v -11.1223 h -3.4 v -10.17 h 3.4 v -11.12231 h -3.4 v -10.17 h 3.4 v -11.12231 h -3.4 v -10.17 h 3.4 v -11.12231 h -3.4 v -10.17 h 3.4 V 175.4252 h -3.4 v -10.17 h 3.4 v -11.1223 h -3.4 v -10.17 h 3.4 v -11.12231 h -3.4 v -10.17 h 3.4 v -11.12231 h -3.4 v -10.17 h 3.4 V 90.255972 h -3.4 v -10.17 h 3.4 V 68.963667 h -3.4 v -10.17 h 3.4 v -11.12231 h -3.4 v -10.17 h 3.4 v -7.80731"
     inkscape:connector-curvature="0" />
  <path
     id="path4044"
     inkscape:label="part"
     style="fill:none;stroke:#000000"
     d="m 25.05,25.538092 h 11.056429 v 3.4 h 9.83 v -3.4 h 11.141428 v 3.4 h 9.83 v -3.4 h 11.141429 v 3.4 h 9.83 v -3.4 h 11.141425 v 3.4 h 9.829999 v -3.4 h 11.14143 v 3.4 h 9.83 v -3.4 h 11.14143 v 3.4 h 9.83 v -3.4 H 161.85"
     inkscape:connector-curvature="0" />
  <path
     id="path4046"
     inkscape:label="part"
     style="fill:none;stroke:#000000"
     d="m 161.85,25.538092 v 11.37731 h -3.4 v 9.83 h 3.4 v 11.46231 h -3.4 v 9.83 h 3.4 v 11.46231 h -3.4 v 9.83 h 3.4 v 11.462298 h -3.4 v 9.83 h 3.4 v 11.46231 h -3.4 v 9.83 h 3.4 v 11.46231 h -3.4 v 9.83 h 3.4 v 11.46231 h -3.4 v 9.83 h 3.4 v 11.46231 h -3.4 v 9.83 h 3.4 v 11.4623 h -3.4 v 9.83 h 3.4 v 11.46231 h -3.4 v 9.83 h 3.4 v 11.46231 h -3.4 v 9.83 h 3.4 v 11.46231 h -3.4 v 9.83 h 3.4 v 11.3773"
     inkscape:connector-curvature="0" />
  <path
     id="path4048"
     inkscape:label="part"
     style="fill:none;stroke:#000000"
     d="m 161.85,292.33809 h -11.05643 v -3.4 h -9.83 v 3.4 h -11.14143 v -3.4 h -9.83 v 3.4 h -11.14143 v -3.4 h -9.829999 v 3.4 H 87.879286 v -3.4 h -9.83 v 3.4 H 66.907857 v -3.4 h -9.83 v 3.4 H 45.936429 v -3.4 h -9.83 v 3.4 H 25.05"
     inkscape:connector-curvature="0" />
  <path
     id="path4050"
     inkscape:label="part"
     style="fill:none;stroke:#000000"
     d="m 25.05,292.33809 v -11.3773 h 3.4 v -9.83 h -3.4 v -11.46231 h 3.4 v -9.83 h -3.4 v -11.46231 h 3.4 v -9.83 h -3.4 v -11.46231 h 3.4 v -9.83 h -3.4 v -11.4623 h 3.4 v -9.83 h -3.4 v -11.46231 h 3.4 v -9.83 h -3.4 v -11.46231 h 3.4 v -9.83 h -3.4 v -11.46231 h 3.4 v -9.83 h -3.4 v -11.46231 h 3.4 v -9.83 h -3.4 V 89.330022 h 3.4 v -9.83 h -3.4 v -11.46231 h 3.4 v -9.83 h -3.4 v -11.46231 h 3.4 v -9.83 h -3.4 v -11.37731"
     inkscape:connector-curvature="0" />
  <path
     id="path4052"
     inkscape:label="part"
     style="fill:none;stroke:#000000"
     d="m 400.05952,30.450001 h 14.915 v -3.4 h 10.17 v 3.4 h 14.915"
     inkscape:connector-curvature="0" />
  <path
     id="path4054"
     inkscape:label="part"
     style="fill:none;stroke:#000000"
     d="m 440.05952,30.450001 v 7.807307 h 3.4 v 10.17 h -3.4 v 11.122308 h 3.4 v 10.17 h -3.4 v 11.122306 h 3.4 v 10.17 h -3.4 v 11.122308 h 3.4 v 10.17 h -3.4 v 11.12231 h 3.4 v 10.17 h -3.4 v 11.12231 h 3.4 v 10.17 h -3.4 v 11.1223 h 3.4 v 10.17 h -3.4 v 11.12231 h 3.4 v 10.17 h -3.4 v 11.12231 h 3.4 v 10.17 h -3.4 v 11.12231 h 3.4 v 10.17 h -3.4 v 11.12231 h 3.4 v 10.17 h -3.4 v 11.1223 h 3.4 v 10.17 h -3.4 V 290.45"
     inkscape:connector-curvature="0" />
  <path
     id="path4056"
     inkscape:label="part"
     style="fill:none;stroke:#000000"
     d="m 440.05952,290.45 h -14.915 v 3.4 h -10.17 v -3.4 h -14.915"
     inkscape:connector-curvature="0" />
  <path
     id="path4058"
     inkscape:label="part"
     style="fill:none;stroke:#000000"
     d="m 400.05952,290.45 v -7.80731 h -3.4 v -10.17 h 3.4 v -11.1223 h -3.4 v -10.17 h 3.4 v -11.12231 h -3.4 v -10.17 h 3.4 v -11.12231 h -3.4 v -10.17 h 3.4 v -11.12231 h -3.4 v -10.17 h 3.4 v -11.12231 h -3.4 v -10.17 h 3.4 v -11.1223 h -3.4 v -10.17 h 3.4 v -11.12231 h -3.4 v -10.17 h 3.4 v -11.12231 h -3.4 v -10.17 h 3.4 V 91.011922 h -3.4 v -10.17 h 3.4 V 69.719616 h -3.4 v -10.17 h 3.4 V 48.427308 h -3.4 v -10.17 h 3.4 v -7.807307"
     inkscape:connector-curvature="0" />
  <path
     id="path4060"
     inkscape:label="part"
     style="fill:none;stroke:#000000"
     d="m 178.58452,25.538092 h 11.05643 v 3.4 h 9.83 v -3.4 h 11.14143 v 3.4 h 9.83 v -3.4 h 11.14143 v 3.4 h 9.83 v -3.4 h 11.14143 v 3.4 h 9.83 v -3.4 h 11.14143 v 3.4 h 9.83 v -3.4 h 11.14143 v 3.4 h 9.83 v -3.4 h 11.05642"
     inkscape:connector-curvature="0" />
  <path
     id="path4062"
     inkscape:label="part"
     style="fill:none;stroke:#000000"
     d="m 315.38452,25.538092 v 11.37731 h -3.4 v 9.83 h 3.4 v 11.46231 h -3.4 v 9.83 h 3.4 v 11.46231 h -3.4 v 9.83 h 3.4 v 11.462298 h -3.4 v 9.83 h 3.4 v 11.46231 h -3.4 v 9.83 h 3.4 v 11.46231 h -3.4 v 9.83 h 3.4 v 11.46231 h -3.4 v 9.83 h 3.4 v 11.46231 h -3.4 v 9.83 h 3.4 v 11.4623 h -3.4 v 9.83 h 3.4 v 11.46231 h -3.4 v 9.83 h 3.4 v 11.46231 h -3.4 v 9.83 h 3.4 v 11.46231 h -3.4 v 9.83 h 3.4 v 11.3773"
     inkscape:connector-curvature="0" />
  <path
     id="path4064"
     inkscape:label="part"
     style="fill:none;stroke:#000000"
     d="M 315.38452,292.33809 H 304.3281 v -3.4 h -9.83 v 3.4 h -11.14143 v -3.4 h -9.83 v 3.4 h -11.14143 v -3.4 h -9.83 v 3.4 h -11.14143 v -3.4 h -9.83 v 3.4 h -11.14143 v -3.4 h -9.83 v 3.4 h -11.14143 v -3.4 h -9.83 v 3.4 h -11.05643"
     inkscape:connector-curvature="0" />
  <path
     id="path4066"
     inkscape:label="part"
     style="fill:none;stroke:#000000"
     d="m 178.58452,292.33809 v -11.3773 h 3.4 v -9.83 h -3.4 v -11.46231 h 3.4 v -9.83 h -3.4 v -11.46231 h 3.4 v -9.83 h -3.4 v -11.46231 h 3.4 v -9.83 h -3.4 v -11.4623 h 3.4 v -9.83 h -3.4 v -11.46231 h 3.4 v -9.83 h -3.4 v -11.46231 h 3.4 v -9.83 h -3.4 v -11.46231 h 3.4 v -9.83 h -3.4 v -11.46231 h 3.4 v -9.83 h -3.4 V 89.330022 h 3.4 v -9.83 h -3.4 v -11.46231 h 3.4 v -9.83 h -3.4 v -11.46231 h 3.4 v -9.83 h -3.4 v -11.37731"
     inkscape:connector-curvature="0" />
  <path
     id="path4068"
     inkscape:label="part"
     style="fill:none;stroke:#000000"
     d="m 176.99642,315.0488 h 10.88643 v -3.4 h 10.17 v 3.4 h 10.80143 v -3.4 h 10.17 v 3.4 h 10.80143 v -3.4 h 10.17 v 3.4 h 10.80143 v -3.4 h 10.17 v 3.4 h 10.80143 v -3.4 h 10.17 v 3.4 h 10.80142 v -3.4 h 10.17 v 3.4 h 10.88643"
     inkscape:connector-curvature="0" />
  <path
     id="path4070"
     inkscape:label="part"
     style="fill:none;stroke:#000000"
     d="m 313.79642,315.0488 v 15.085 h -3.4 v 9.83 h 3.4 v 15.085"
     inkscape:connector-curvature="0" />
  <path
     id="path4072"
     inkscape:label="part"
     style="fill:none;stroke:#000000"
     d="m 313.79642,355.0488 h -10.88643 v 3.4 h -10.17 v -3.4 h -10.80142 v 3.4 h -10.17 v -3.4 h -10.80143 v 3.4 h -10.17 v -3.4 h -10.80143 v 3.4 h -10.17 v -3.4 h -10.80143 v 3.4 h -10.17 v -3.4 h -10.80143 v 3.4 h -10.17 v -3.4 h -10.88643"
     inkscape:connector-curvature="0" />
  <path
     id="path4074"
     inkscape:label="part"
     style="fill:none;stroke:#000000"
     d="m 176.99642,355.0488 v -15.085 h 3.4 v -9.83 h -3.4 v -15.085"
     inkscape:connector-curvature="0" />
</svg>
