<?xml version="1.0" encoding="UTF-8" standalone="no"?>
<!-- Created with Inkscape (http://www.inkscape.org/) -->

<svg
   xmlns:dc="http://purl.org/dc/elements/1.1/"
   xmlns:cc="http://creativecommons.org/ns#"
   xmlns:rdf="http://www.w3.org/1999/02/22-rdf-syntax-ns#"
   xmlns:svg="http://www.w3.org/2000/svg"
   xmlns="http://www.w3.org/2000/svg"
   xmlns:sodipodi="http://sodipodi.sourceforge.net/DTD/sodipodi-0.dtd"
   xmlns:inkscape="http://www.inkscape.org/namespaces/inkscape"
   id="svg8"
   version="1.1"
   viewBox="0 0 350 500"
   height="500mm"
   width="350mm"
   inkscape:version="0.92.3 (2405546, 2018-03-11)"
   sodipodi:docname="CUBE.svg">
  <sodipodi:namedview
     inkscape:window-maximized="1"
     inkscape:window-y="-8"
     inkscape:window-x="1912"
     inkscape:window-height="1017"
     inkscape:window-width="1920"
     showgrid="false"
     inkscape:current-layer="svg8"
     inkscape:document-units="mm"
     inkscape:cy="1131.9595"
     inkscape:cx="400"
     inkscape:zoom="0.35"
     inkscape:pageshadow="2"
     inkscape:pageopacity="0.0"
     borderopacity="1.0"
     bordercolor="#666666"
     pagecolor="#ffffff"
     id="base" />
  <defs
     id="defs2" />
  <metadata
     id="metadata5">
    <rdf:RDF>
      <cc:Work
         rdf:about="">
        <dc:format>image/svg+xml</dc:format>
        <dc:type
           rdf:resource="http://purl.org/dc/dcmitype/StillImage" />
        <dc:title />
      </cc:Work>
    </rdf:RDF>
  </metadata>
  <g
     inkscape:label="Layer 1"
     inkscape:groupmode="layer"
     id="layer1"
     transform="translate(0,203)" />
  <g
     transform="translate(0,-100)"
     inkscape:label="newlayer"
     inkscape:groupmode="layer"
     id="g3800" />
  <g
     id="g76"
     inkscape:groupmode="layer"
     inkscape:label="newlayer" />
  <path
     id="path78"
     inkscape:label="part"
     style="fill:none;stroke:#000000"
     d="m 189.84523,350.47619 h 10.77215 v -3 h 10.17 v 3 h 10.68714 v -3 h 10.17 v 3 h 10.68714 v -3 h 10.17 v 3 h 10.68714 v -3 h 10.17 v 3 h 10.68715 v -3 h 10.17 v 3 h 10.68714 v -3 h 10.17 v 3 h 10.77214"
     inkscape:connector-curvature="0" />
  <path
     id="path80"
     inkscape:label="part"
     style="fill:none;stroke:#000000"
     d="m 325.84523,350.47619 v 7.94214 h -3 v 9.83 h 3 v 11.02715 h -3 v 9.83 h 3 v 11.02714 h -3 v 9.83 h 3 v 11.02714 h -3 v 9.83 h 3 v 11.02715 h -3 v 9.83 h 3 v 11.02714 h -3 v 9.83 h 3 v 7.94214"
     inkscape:connector-curvature="0" />
  <path
     id="path82"
     inkscape:label="part"
     style="fill:none;stroke:#000000"
     d="m 325.84523,480.47619 h -10.77214 v 3 h -10.17 v -3 h -10.68714 v 3 h -10.17 v -3 H 273.3588 v 3 h -10.17 v -3 h -10.68714 v 3 h -10.17 v -3 h -10.68714 v 3 h -10.17 v -3 h -10.68714 v 3 h -10.17 v -3 h -10.77215"
     inkscape:connector-curvature="0" />
  <path
     id="path84"
     inkscape:label="part"
     style="fill:none;stroke:#000000"
     d="m 189.84523,480.47619 v -7.94214 h 3 v -9.83 h -3 v -11.02714 h 3 v -9.83 h -3 v -11.02715 h 3 v -9.83 h -3 v -11.02714 h 3 v -9.83 h -3 v -11.02714 h 3 v -9.83 h -3 v -11.02715 h 3 v -9.83 h -3 v -7.94214"
     inkscape:connector-curvature="0" />
  <path
     id="path86"
     inkscape:label="part"
     style="fill:none;stroke:#000000"
     d="m 24.630953,20.488095 h 7.772142 v -3 h 10.17 v 3 h 10.687143 v -3 h 10.17 v 3 h 10.687143 v -3 h 10.17 v 3 h 10.687143 v -3 h 10.169996 v 3 h 10.68715 v -3 h 10.17 v 3 h 10.68714 v -3 h 10.17 v 3 h 7.77214"
     inkscape:connector-curvature="0" />
  <path
     id="path88"
     inkscape:label="part"
     style="fill:none;stroke:#000000"
     d="m 154.63095,20.488095 v 7.772143 h 3 v 10.17 h -3 v 10.687143 h 3 v 10.17 h -3 v 10.687143 h 3 v 10.17 h -3 v 10.687143 h 3 v 10.170003 h -3 v 10.68714 h 3 v 10.16999 h -3 v 10.68715 h 3 v 10.17 h -3 v 7.77214"
     inkscape:connector-curvature="0" />
  <path
     id="path90"
     inkscape:label="part"
     style="fill:none;stroke:#000000"
     d="m 154.63095,150.48809 h -7.77214 v 3 h -10.17 v -3 h -10.68714 v 3 h -10.17 v -3 h -10.68715 v 3 H 94.974524 v -3 H 84.287381 v 3 h -10.17 v -3 H 63.430238 v 3 h -10.17 v -3 H 42.573095 v 3 h -10.17 v -3 h -7.772142"
     inkscape:connector-curvature="0" />
  <path
     id="path92"
     inkscape:label="part"
     style="fill:none;stroke:#000000"
     d="m 24.630953,150.48809 v -7.77214 h -3 v -10.17 h 3 V 121.8588 h -3 v -10.16999 h 3 v -10.68714 h -3 V 90.831667 h 3 V 80.144524 h -3 v -10.17 h 3 V 59.287381 h -3 v -10.17 h 3 V 38.430238 h -3 v -10.17 h 3 v -7.772143"
     inkscape:connector-curvature="0" />
  <path
     id="path94"
     inkscape:label="part"
     style="fill:none;stroke:#000000"
     d="m 22.02381,177.75 h 10.942143 v 3 h 9.83 v -3 h 11.027143 v 3 h 9.83 v -3 h 11.027143 v 3 h 9.83 v -3 h 11.027143 v 3 h 9.829998 v -3 h 11.02715 v 3 h 9.83 v -3 h 11.02714 v 3 h 9.83 v -3 h 10.94214"
     inkscape:connector-curvature="0" />
  <path
     id="path96"
     inkscape:label="part"
     style="fill:none;stroke:#000000"
     d="m 158.02381,177.75 v 10.94214 h -3 v 9.83 h 3 v 11.02715 h -3 v 9.83 h 3 v 11.02714 h -3 v 9.83 h 3 v 11.02714 h -3 v 9.83 h 3 v 11.02714 h -3 v 9.83 h 3 v 11.02715 h -3 v 9.83 h 3 V 313.75"
     inkscape:connector-curvature="0" />
  <path
     id="path98"
     inkscape:label="part"
     style="fill:none;stroke:#000000"
     d="m 158.02381,313.75 h -10.94214 v -3 h -9.83 v 3 h -11.02714 v -3 h -9.83 v 3 h -11.02715 v -3 h -9.829998 v 3 H 84.510239 v -3 h -9.83 v 3 H 63.653096 v -3 h -9.83 v 3 H 42.795953 v -3 h -9.83 v 3 H 22.02381"
     inkscape:connector-curvature="0" />
  <path
     id="path100"
     inkscape:label="part"
     style="fill:none;stroke:#000000"
     d="m 22.02381,313.75 v -10.94214 h 3 v -9.83 h -3 v -11.02715 h 3 v -9.83 h -3 v -11.02714 h 3 v -9.83 h -3 v -11.02714 h 3 v -9.83 h -3 v -11.02714 h 3 v -9.83 h -3 v -11.02715 h 3 v -9.83 h -3 V 177.75"
     inkscape:connector-curvature="0" />
  <path
     id="path102"
     inkscape:label="part"
     style="fill:none;stroke:#000000"
     d="m 192.48214,180.75 h 7.77215 v -3 h 10.17 v 3 h 10.68714 v -3 h 10.17 v 3 h 10.68714 v -3 h 10.17 v 3 h 10.68714 v -3 h 10.17 v 3 h 10.68715 v -3 h 10.17 v 3 H 304.54 v -3 h 10.17 v 3 h 7.77214"
     inkscape:connector-curvature="0" />
  <path
     id="path104"
     inkscape:label="part"
     style="fill:none;stroke:#000000"
     d="m 322.48214,180.75 v 7.77214 h 3 v 10.17 h -3 v 10.68715 h 3 v 10.17 h -3 v 10.68714 h 3 v 10.17 h -3 v 10.68714 h 3 v 10.17 h -3 v 10.68714 h 3 v 10.17 h -3 v 10.68715 h 3 v 10.17 h -3 V 310.75"
     inkscape:connector-curvature="0" />
  <path
     id="path106"
     inkscape:label="part"
     style="fill:none;stroke:#000000"
     d="M 322.48214,310.75 H 314.71 v 3 h -10.17 v -3 h -10.68714 v 3 h -10.17 v -3 h -10.68715 v 3 h -10.17 v -3 h -10.68714 v 3 h -10.17 v -3 h -10.68714 v 3 h -10.17 v -3 h -10.68714 v 3 h -10.17 v -3 h -7.77215"
     inkscape:connector-curvature="0" />
  <path
     id="path108"
     inkscape:label="part"
     style="fill:none;stroke:#000000"
     d="m 192.48214,310.75 v -7.77214 h -3 v -10.17 h 3 v -10.68715 h -3 v -10.17 h 3 v -10.68714 h -3 v -10.17 h 3 v -10.68714 h -3 v -10.17 h 3 v -10.68714 h -3 v -10.17 h 3 v -10.68715 h -3 v -10.17 h 3 V 180.75"
     inkscape:connector-curvature="0" />
  <path
     id="path110"
     inkscape:label="part"
     style="fill:none;stroke:#000000"
     d="m 24.321429,347.83929 h 10.942142 v 3 h 9.83 v -3 h 11.027143 v 3 h 9.83 v -3 h 11.027143 v 3 h 9.83 v -3 H 97.835 v 3 h 9.83 v -3 h 11.02714 v 3 h 9.83 v -3 h 11.02715 v 3 h 9.83 v -3 h 10.94214"
     inkscape:connector-curvature="0" />
  <path
     id="path112"
     inkscape:label="part"
     style="fill:none;stroke:#000000"
     d="m 160.32143,347.83929 v 10.94214 h -3 v 9.83 h 3 v 11.02714 h -3 v 9.83 h 3 v 11.02714 h -3 v 9.83 h 3 v 11.02715 h -3 v 9.83 h 3 V 442.21 h -3 v 9.83 h 3 v 11.02714 h -3 v 9.83 h 3 v 10.94215"
     inkscape:connector-curvature="0" />
  <path
     id="path114"
     inkscape:label="part"
     style="fill:none;stroke:#000000"
     d="m 160.32143,483.83929 h -10.94214 v -3 h -9.83 v 3 h -11.02715 v -3 h -9.83 v 3 H 107.665 v -3 h -9.83 v 3 H 86.807857 v -3 h -9.83 v 3 H 65.950714 v -3 h -9.83 v 3 H 45.093571 v -3 h -9.83 v 3 H 24.321429"
     inkscape:connector-curvature="0" />
  <path
     id="path116"
     inkscape:label="part"
     style="fill:none;stroke:#000000"
     d="m 24.321429,483.83929 v -10.94215 h 3 v -9.83 h -3 V 452.04 h 3 v -9.83 h -3 v -11.02714 h 3 v -9.83 h -3 v -11.02715 h 3 v -9.83 h -3 v -11.02714 h 3 v -9.83 h -3 v -11.02714 h 3 v -9.83 h -3 v -10.94214"
     inkscape:connector-curvature="0" />
  <path
     id="path118"
     inkscape:label="part"
     style="fill:none;stroke:#000000"
     d="m 189.84523,22.363096 h 10.77215 v -3 h 10.17 v 3 h 10.68714 v -3 h 10.17 v 3 h 10.68714 v -3 h 10.17 v 3 h 10.68715 v -3 h 10.17 v 3 h 10.68714 v -3 h 10.17 v 3 h 10.68714 v -3 h 10.17 v 3 h 10.77214"
     inkscape:connector-curvature="0" />
  <path
     id="path120"
     inkscape:label="part"
     style="fill:none;stroke:#000000"
     d="m 325.84523,22.363096 v 7.942142 h -3 v 9.83 h 3 v 11.027143 h -3 v 9.83 h 3 v 11.027143 h -3 v 9.83 h 3 v 11.027143 h -3 v 9.830003 h 3 v 11.02714 h -3 v 9.83 h 3 v 11.02714 h -3 v 9.83 h 3 v 7.94215"
     inkscape:connector-curvature="0" />
  <path
     id="path122"
     inkscape:label="part"
     style="fill:none;stroke:#000000"
     d="m 325.84523,152.3631 h -10.77214 v 3 h -10.17 v -3 h -10.68714 v 3 h -10.17 v -3 h -10.68714 v 3 h -10.17 v -3 h -10.68715 v 3 h -10.17 v -3 h -10.68714 v 3 h -10.17 v -3 h -10.68714 v 3 h -10.17 v -3 h -10.77215"
     inkscape:connector-curvature="0" />
  <path
     id="path124"
     inkscape:label="part"
     style="fill:none;stroke:#000000"
     d="m 189.84523,152.3631 v -7.94215 h 3 v -9.83 h -3 v -11.02714 h 3 v -9.83 h -3 v -11.02714 h 3 v -9.830003 h -3 V 81.849524 h 3 v -9.83 h -3 V 60.992381 h 3 v -9.83 h -3 V 40.135238 h 3 v -9.83 h -3 v -7.942142"
     inkscape:connector-curvature="0" />
  <path
     style="fill:#000000;stroke-width:0.27363878"
     d="m 30.59194,306.14699 v -4.60301 h 2.28147 2.28149 v 2.37125 2.37125 h 2.28148 2.28148 v 2.23176 2.23176 H 35.1549 30.59194 Z m 107.3638,2.37125 v -2.23176 h 2.28149 2.28147 v -2.37125 -2.37125 h 2.28148 2.28149 v 4.60301 4.60301 h -4.56297 -4.56296 z m -98.23788,-23.294 v -16.31973 h 49.11893 49.11895 v 16.31973 16.31974 H 88.83679 39.71786 Z m 13.42047,0 V 273.647 h -4.56296 -4.56295 v 11.57724 11.57724 h 4.56295 4.56296 z m 13.42048,0 V 273.647 h -4.56296 -4.56296 v 11.57724 11.57724 h 4.56296 4.56296 z m 13.42047,0 V 273.647 h -4.56296 -4.56296 v 11.57724 11.57724 h 4.56296 4.56296 z m 13.42048,0 V 273.647 h -4.56297 -4.56295 v 11.57724 11.57724 h 4.56295 4.56297 z m 13.42048,0 V 273.647 h -4.56296 -4.56297 v 11.57724 11.57724 h 4.56297 4.56296 z m 13.42049,0 V 273.647 h -4.56298 -4.56297 v 11.57724 11.57724 h 4.56297 4.56298 z m 13.42046,0 V 273.647 h -4.56297 -4.56295 v 11.57724 11.57724 h 4.56295 4.56297 z M 30.59194,264.3015 v -4.60301 h 4.56296 4.56296 v 2.37124 2.37126 H 37.43638 35.1549 v 2.23175 2.23177 h -2.28149 -2.28147 z m 111.92676,2.37124 v -2.23175 h -2.28147 -2.28149 v -2.37126 -2.37124 h 4.56296 4.56297 v 4.60301 4.60301 h -2.28149 -2.28148 z M 30.59194,227.1985 v -4.603 h 2.28147 2.28149 v 2.23176 2.23175 h 2.28148 2.28148 v 2.37126 2.37123 H 35.1549 30.59194 Z m 53.6819,2.23177 v -2.37126 h 6.71024 6.71023 v 2.37126 2.37123 h -6.71023 -6.71024 z m 53.6819,0 v -2.37126 h 2.28149 2.28147 v -2.23175 -2.23176 h 2.28148 2.28149 v 4.603 4.603 h -4.56297 -4.56296 z M 39.71786,206.27575 v -16.31974 h 15.56776 15.56774 v 16.31974 16.31975 H 55.28562 39.71786 Z m 13.42047,6.97426 V 208.647 h -4.56296 -4.56295 v 4.60301 4.603 h 4.56295 4.56296 z m 13.42048,0 V 208.647 h -4.56296 -4.56296 v 4.60301 4.603 h 4.56296 4.56296 z M 53.13833,199.30149 v -4.60299 h -4.56296 -4.56295 v 4.60299 4.60301 h 4.56295 4.56296 z m 13.42048,0 v -4.60299 h -4.56296 -4.56296 v 4.60299 4.60301 h 4.56296 4.56296 z m 22.27798,13.94852 v -9.34551 h -2.28147 -2.28148 v -2.37124 -2.37124 h 2.28148 2.28147 v -2.23176 -2.23176 h 2.28149 2.28148 v 13.9485 13.9485 h -2.28148 -2.28149 z m 17.98345,-6.97426 v -16.31974 h 15.56776 15.56774 v 16.31974 16.31975 H 122.388 106.82024 Z m 13.42049,6.97426 V 208.647 h -4.56298 -4.56297 v 4.60301 4.603 h 4.56297 4.56298 z m 13.42046,0 V 208.647 h -4.56297 -4.56295 v 4.60301 4.603 h 4.56295 4.56297 z m -13.42046,-13.94852 v -4.60299 h -4.56298 -4.56297 v 4.60299 4.60301 h 4.56297 4.56298 z m 13.42046,0 v -4.60299 h -4.56297 -4.56295 v 4.60299 4.60301 h 4.56295 4.56297 z M 30.59194,185.35301 V 180.75 h 4.56296 4.56296 v 2.23177 2.23175 H 37.43638 35.1549 v 2.37126 2.37123 h -2.28149 -2.28147 z m 58.24485,2.23177 v -2.37126 H 86.55532 84.27384 V 182.98177 180.75 h 6.71024 6.71023 v 2.23177 2.23175 h -2.14727 -2.14728 v 2.37126 2.37123 h -2.28148 -2.28149 z m 53.68191,0 v -2.37126 h -2.28147 -2.28149 V 182.98177 180.75 h 4.56296 4.56297 v 4.60301 4.603 h -2.28149 -2.28148 z"
     id="path3975"
     inkscape:connector-curvature="0" />
  <path
     style="fill:#000000;stroke-width:0.26228166"
     d="m 239.36515,236.77547 v -4.29 h 2.24896 2.24896 v 2.08 2.08 h 2.24897 2.24895 v 2.21 2.21 h -4.49792 -4.49792 z m 26.45835,2.08 v -2.21 h 2.24895 2.24896 v -2.08 -2.08 h 2.24896 2.24896 v 4.29 4.29 h -4.49792 -4.49791 z m -17.46251,-8.58 v -2.21 h 2.11667 2.11667 v -2.21 -2.21 h 2.24896 2.24896 v -2.08 -2.08 h 2.24895 2.24896 v -4.42 -4.42 h -4.49791 -4.49792 v 2.21 2.21 h -2.11667 -2.11667 v -2.21 -2.21 h 2.11667 2.11667 v -2.08 -2.08 h 4.49792 4.49791 v 2.08 2.08 h 2.11667 2.11667 v 4.42 4.42 h -2.11667 -2.11667 v 2.08 2.08 h -2.24896 -2.24895 v 2.21 2.21 h 4.36562 4.36563 v 2.21 2.21 h -8.73125 -8.73126 z m -8.99584,-28.21 v -4.42 h 4.49792 4.49792 v 2.21 2.21 h -2.24895 -2.24897 v 2.21 2.21 h -2.24896 -2.24896 z m 30.95626,2.21 v -2.21 h -2.24896 -2.24895 v -2.21 -2.21 h 4.49791 4.49792 v 4.42 4.42 h -2.24896 -2.24896 z"
     id="path3971"
     inkscape:connector-curvature="0" />
  <path
     style="fill:#000000;stroke-width:0.27200001"
     d="m 73.032129,408.38243 v -4.488 h 2.312 2.312 v 2.176 2.176 h 2.312 2.312 v 2.312 2.312 h -4.624 -4.624 z m 27.200001,2.176 v -2.312 h 2.312 2.312 v -2.176 -2.176 h 2.312 2.312 v 4.488 4.488 h -4.624 -4.624 z m -17.952001,-8.976 v -2.312 h 6.8 6.8 v -4.488 -4.488 h -4.624 -4.624 v -2.312 -2.312 h 4.624 4.624 v -2.312 -2.312 h -6.8 -6.8 v -2.176 -2.176 h 6.8 6.8 v 2.176 2.176 h 2.176 2.176001 v 2.312 2.312 h -2.176001 -2.176 v 2.312 2.312 h 2.176 2.176001 v 4.488 4.488 h -2.176001 -2.176 v 2.312 2.312 h -6.8 -6.8 z m -9.248,-29.512 v -4.624 h 4.624 4.624 v 2.312 2.312 h -2.312 -2.312 v 2.312 2.312 h -2.312 -2.312 z m 31.824001,2.312 v -2.312 h -2.312 -2.312 v -2.312 -2.312 h 4.624 4.624 v 4.624 4.624 h -2.312 -2.312 z"
     id="path3969"
     inkscape:connector-curvature="0" />
  <path
     style="fill:#000000;stroke-width:0.25999999"
     d="m 70.699061,75.757625 v -4.29 h 2.21 2.210001 v 2.08 2.08 h 2.21 2.21 v 2.21 2.21 h -4.42 -4.420001 z m 26.000001,2.08 v -2.21 h 2.21 2.209998 v -2.08 -2.08 h 2.21 2.21 v 4.29 4.29 h -4.42 -4.419998 z m -8.58,-10.79 v -4.42 h -4.29 -4.29 v -4.29 -4.29 h 2.08 2.08 v -2.21 -2.21 h 2.21 2.21 v -2.08 -2.08 h 2.21 2.21 v 2.08 2.08 h -2.21 -2.21 v 2.21 2.21 h 2.21 2.21 v 2.21 2.21 h 2.08 2.08 v 2.08 2.08 h -2.08 -2.08 v 4.42 4.42 h -2.21 -2.21 z m 0,-10.79 v -2.21 h -2.21 -2.21 v 2.21 2.21 h 2.21 2.21 z m -17.420001,-15.21 v -4.42 h 4.420001 4.42 v 2.21 2.21 h -2.21 -2.21 v 2.21 2.21 h -2.210001 -2.21 z m 30.419999,2.21 v -2.21 h -2.209998 -2.21 v -2.21 -2.21 h 4.419998 4.42 v 4.42 4.42 h -2.21 -2.21 z"
     id="path3973"
     inkscape:connector-curvature="0" />
  <path
     style="fill:#000000;stroke-width:0.25919518"
     d="m 193.6488,80.435239 v -4.42 h 2.19634 2.19634 v 2.21 2.21 h 2.19634 2.19634 v 2.21 2.21 h -4.39268 -4.39268 z m 26.61446,2.21 v -2.21 h 2.32554 2.32554 v -2.21 -2.21 h 2.19633 2.19635 v 2.21 2.21 h 2.19634 2.19633 v 2.21 2.21 h -6.71821 -6.71822 z m 31.26553,0 v -2.21 h 2.19636 2.19634 v -2.21 -2.21 h 2.32552 2.32554 v 2.21 2.21 h 2.19634 2.19634 v 2.21 2.21 h -6.71822 -6.71822 z m 31.26554,0 v -2.21 h 2.19635 2.19634 v -2.21 -2.21 h 2.19634 2.19633 v 2.21 2.21 h 2.32555 2.32552 v 2.21 2.21 h -6.71822 -6.71821 z m 31.26555,0 v -2.21 h 2.19634 2.19633 v -2.21 -2.21 h 2.19634 2.19634 v 4.42 4.42 h -4.39268 -4.39267 z m -102.58197,-15.6 v -8.97 h -2.19634 -2.19633 v -2.34 -2.34 h 2.19633 2.19634 v -2.21 -2.21 h 2.19634 2.19634 v 13.52 13.52 h -2.19634 -2.19634 z m 22.22178,6.63 v -2.34 h 2.19634 2.19635 v -2.21 -2.21 h 2.32553 2.32553 v -2.21 -2.21 h 2.19635 2.19633 v -4.55 -4.55 h -4.52188 -4.52186 v 2.34 2.34 h -2.19635 -2.19634 v -2.34 -2.34 h 2.19634 2.19635 v -2.21 -2.21 h 4.52186 4.52188 v 2.21 2.21 h 2.19634 2.19633 v 4.55 4.55 h -2.19633 -2.19634 v 2.21 2.21 h -2.19633 -2.19635 v 2.21 2.21 h 4.39268 4.39267 v 2.34 2.34 h -8.91455 -8.91455 z m 31.26554,0 v -2.34 h 6.71821 6.71822 v -4.42 -4.42 h -4.52188 -4.52186 v -2.21 -2.21 h 4.52186 4.52188 v -2.34 -2.34 h -6.71822 -6.71821 v -2.21 -2.21 h 6.71821 6.71822 v 2.21 2.21 h 2.19633 2.19634 v 2.34 2.34 h -2.19634 -2.19633 v 2.21 2.21 h 2.19633 2.19634 v 4.42 4.42 h -2.19634 -2.19633 v 2.34 2.34 h -6.71822 -6.71821 z m 40.05089,-2.21 v -4.55 h -4.39267 -4.39269 v -4.42 -4.42 h 2.19635 2.19634 v -2.34 -2.34 h 2.19634 2.19633 v -2.21 -2.21 h 2.19634 2.19634 v 2.21 2.21 h -2.19634 -2.19634 v 2.34 2.34 h 2.19634 2.19634 v 2.21 2.21 h 2.32554 2.32554 v 2.21 2.21 h -2.32554 -2.32554 v 4.55 4.55 h -2.19634 -2.19634 z m 0,-11.18 v -2.21 h -2.19633 -2.19634 v 2.21 2.21 h 2.19634 2.19633 z m -111.36732,-15.73 v -4.42 h 4.39268 4.39268 v 2.21 2.21 h -2.19634 -2.19634 v 2.21 2.21 h -2.19634 -2.19634 z m 31.26554,2.21 v -2.21 h -2.32554 -2.32554 v -2.21 -2.21 h 6.71822 6.71821 v 2.21 2.21 h -2.19633 -2.19634 v 2.21 2.21 h -2.19635 -2.19633 z m 31.00715,0 v -2.21 h -2.19634 -2.19636 v -2.21 -2.21 h 6.71822 6.71822 v 2.21 2.21 h -2.19634 -2.19634 v 2.21 2.21 h -2.32554 -2.32552 z m 31.26553,0 v -2.21 h -2.19634 -2.19635 v -2.21 -2.21 h 6.71821 6.71822 v 2.21 2.21 h -2.32552 -2.32555 v 2.21 2.21 h -2.19633 -2.19634 z m 31.26553,0 v -2.21 h -2.19633 -2.19634 v -2.21 -2.21 h 4.39267 4.39268 v 4.42 4.42 h -2.19634 -2.19634 z"
     id="path3979"
     inkscape:connector-curvature="0" />
</svg>
